<?xml version="1.0" encoding="UTF-8" standalone="no"?>
<svg
   xmlns:dc="http://purl.org/dc/elements/1.1/"
   xmlns:cc="http://creativecommons.org/ns#"
   xmlns:rdf="http://www.w3.org/1999/02/22-rdf-syntax-ns#"
   xmlns:svg="http://www.w3.org/2000/svg"
   xmlns="http://www.w3.org/2000/svg"
   xmlns:sodipodi="http://sodipodi.sourceforge.net/DTD/sodipodi-0.dtd"
   xmlns:inkscape="http://www.inkscape.org/namespaces/inkscape"
   inkscape:version="1.0 (4035a4f, 2020-05-01)"
   height="51.060001"
   width="250.78999"
   sodipodi:docname="logo-cosma.svg"
   xml:space="preserve"
   viewBox="0 0 250.79 51.060001"
   y="0px"
   x="0px"
   id="Calque_1"
   version="1.1"><metadata
   id="metadata61"><rdf:RDF><cc:Work
       rdf:about=""><dc:format>image/svg+xml</dc:format><dc:type
         rdf:resource="http://purl.org/dc/dcmitype/StillImage" /></cc:Work></rdf:RDF></metadata><defs
   id="defs59" /><sodipodi:namedview
   inkscape:current-layer="Calque_1"
   inkscape:window-maximized="0"
   inkscape:window-y="0"
   inkscape:window-x="0"
   inkscape:cy="26.35"
   inkscape:cx="125.45"
   inkscape:zoom="2.8998801"
   showgrid="false"
   id="namedview57"
   inkscape:window-height="872"
   inkscape:window-width="1440"
   inkscape:pageshadow="2"
   inkscape:pageopacity="0"
   guidetolerance="10"
   gridtolerance="10"
   objecttolerance="10"
   borderopacity="1"
   bordercolor="#666666"
   pagecolor="#ffffff" />
<style
   id="style10"
   type="text/css">
	.st0{fill:#147899;}
	.st1{fill:#02385C;}
	.st2{fill:#001A37;}
</style>
<g
   transform="translate(-16.28,-16.17)"
   id="g54">
	<path
   id="path12"
   d="m 227.63,41.56 v 0.68 c 0,-0.12 0,-0.23 0,-0.35 0,-0.11 0,-0.22 0,-0.33 m -15.62,-15.3 c -6.32,0 -12.02,3.81 -14.44,9.65 -2.42,5.84 -1.08,12.56 3.39,17.03 2.99,2.99 6.98,4.58 11.05,4.58 2.01,0 4.04,-0.39 5.98,-1.19 0.26,-0.11 0.52,-0.22 0.77,-0.34 v -12.1 c -0.86,2.91 -3.56,5.03 -6.75,5.03 v 0 c -2.85,0 -5.41,-1.71 -6.5,-4.34 -1.09,-2.63 -0.49,-5.66 1.53,-7.67 1.35,-1.35 3.15,-2.06 4.98,-2.06 0.91,0 1.82,0.18 2.69,0.54 1.99,0.83 3.46,2.5 4.05,4.5 V 27.8 c -2.05,-0.98 -4.33,-1.53 -6.75,-1.54"
   class="st0" />
	<path
   id="path14"
   d="m 67.32,26.18 c -4,0 -8,1.53 -11.05,4.58 -6.1,6.1 -6.1,16 0,22.1 3.05,3.05 7.05,4.58 11.05,4.58 4,0 8,-1.53 11.05,-4.58 L 72.3,46.79 c -1.31,1.32 -3.1,2.06 -4.96,2.06 -0.01,0 -0.01,0 -0.02,0 -3.19,0 -5.97,-2.14 -6.8,-5.22 -0.82,-3.08 0.52,-6.32 3.28,-7.92 1.1,-0.63 2.31,-0.94 3.52,-0.94 1.82,0 3.62,0.71 4.98,2.06 l 6.07,-6.07 C 75.32,27.71 71.32,26.18 67.32,26.18"
   class="st0" />
	<path
   id="path16"
   d="m 137.46,26.26 h -12.18 c -5.5,0 -9.96,4.46 -9.96,9.96 0,5.5 4.46,9.96 9.96,9.96 h 5.13 c 0.76,0 1.37,0.61 1.37,1.37 0,0.76 -0.61,1.37 -1.37,1.37 h -12.18 v 8.59 h 12.32 c 4,-0.05 7.58,-2.5 9.09,-6.21 1.51,-3.71 0.65,-7.96 -2.18,-10.79 v 0 c -1.86,-1.87 -4.38,-2.92 -7.01,-2.92 -0.01,0 -0.02,0 -0.03,0 h -5.13 c -0.76,0 -1.37,-0.62 -1.37,-1.38 0,-0.76 0.62,-1.37 1.37,-1.37 h 12.18 v -8.58"
   class="st0" />
	<path
   id="path18"
   d="m 227.63,42.24 c -0.13,5.9 -3.58,11.21 -8.88,13.74 v 1.49 h 8.88 V 42.24 m -8.87,-2.36 v 4.01 c 0.19,-0.64 0.29,-1.31 0.29,-2 0,-0.69 -0.1,-1.37 -0.29,-2.01 m 8.87,-13.65 h -8.88 v 1.57 c 5.15,2.48 8.74,7.69 8.88,13.76 V 26.23"
   class="st0" />
	<path
   id="path20"
   d="m 218.76,27.8 v 12.08 c 0.19,0.64 0.29,1.31 0.29,2 0,0.7 -0.1,1.37 -0.29,2 v 12.09 c 5.3,-2.53 8.74,-7.84 8.88,-13.74 V 41.55 C 227.5,35.49 223.91,30.27 218.76,27.8"
   class="st1" />
	<path
   id="path22"
   d="m 153.79,26.23 h -8.52 v 31.24 h 8.52 -8.52 V 39.9 39.72 c 0.07,-5.65 3.57,-10.48 8.52,-12.49 v -1"
   class="st0" />
	<path
   id="path24"
   d="m 177.75,26.23 c -3.65,0 -6.96,1.43 -9.41,3.75 2.58,2.45 4.21,5.91 4.26,9.74 v 0.18 c 0,-2.84 2.3,-5.15 5.15,-5.15 2.84,0 5.15,2.3 5.15,5.15 v 17.57 h 8.52 V 39.9 39.72 c -0.1,-7.47 -6.18,-13.49 -13.67,-13.49"
   class="st0" />
	<path
   id="path26"
   d="m 158.93,26.23 c -1.82,0 -3.56,0.36 -5.15,1 V 57.47 39.9 c 0,-2.84 2.3,-5.15 5.15,-5.15 2.85,0 5.15,2.3 5.15,5.15 v 0 -0.18 c 0.05,-3.83 1.67,-7.28 4.26,-9.74 -2.45,-2.32 -5.76,-3.75 -9.41,-3.75"
   class="st0" />
	<path
   id="path28"
   d="m 153.79,27.23 c -4.94,2.01 -8.45,6.84 -8.52,12.49 v 0.18 17.57 h 8.52 V 27.23"
   class="st1" />
	<path
   id="path30"
   d="m 168.34,29.98 c -2.58,2.45 -4.21,5.91 -4.26,9.74 v 0.18 17.57 h 8.52 v -17.57 0 -0.18 c -0.05,-3.83 -1.68,-7.28 -4.26,-9.74"
   class="st1" />
	<path
   id="path32"
   d="m 95.49,46.43 -4.08,2.36 v 8.55 h 8.17 V 48.79 L 95.49,46.43 M 99.57,26.09 H 91.4 v 8.55 l 4.09,2.36 4.08,-2.36 v -8.55"
   class="st0" />
	<path
   id="path34"
   d="m 103.65,41.71 -4.08,2.36 v 4.71 l 7.4,4.27 4.08,-7.07 -7.4,-4.27 M 84,30.37 l -4.08,7.07 7.4,4.27 4.08,-2.36 V 34.64 L 84,30.37"
   class="st0" />
	<path
   id="path36"
   d="m 99.57,44.07 -4.08,2.36 4.08,2.36 V 44.07 M 91.4,34.64 v 4.71 L 95.49,37 91.4,34.64"
   class="st1" />
	<path
   id="path38"
   d="m 87.32,41.71 -7.4,4.27 4.08,7.08 7.4,-4.27 v -4.71 l -4.08,-2.37 m 19.65,-11.34 -7.4,4.27 v 4.71 l 4.08,2.36 7.4,-4.27 -4.08,-7.07"
   class="st0" />
	<path
   id="path40"
   d="m 91.4,44.07 v 4.71 l 4.08,-2.36 -4.08,-2.35 m 8.17,-9.43 -4.08,2.36 4.08,2.36 v -4.72"
   class="st1" />
	<path
   id="path42"
   d="m 91.4,39.36 -4.08,2.36 4.08,2.36 v -4.72 m 8.17,0 v 4.71 l 4.08,-2.36 -4.08,-2.35"
   class="st1" />
	<polyline
   id="polyline44"
   points="95.49,37 91.4,39.36 91.4,44.07 95.49,46.43 99.57,44.07 99.57,39.36 95.49,37  "
   class="st2" />
	<path
   id="path46"
   d="m 50.43,16.17 h -15 c -0.69,0 -1.25,0.56 -1.25,1.25 v 48.56 c 0,0.69 0.56,1.25 1.25,1.25 h 15 v -9.9 h -5.09 c -0.69,0 -1.25,-0.56 -1.25,-1.25 V 27.34 c 0,-0.69 0.56,-1.25 1.25,-1.25 h 5.09 v -9.92"
   class="st0" />
	<path
   id="path48"
   d="m 32.53,16.17 h -15 c -0.69,0 -1.25,0.56 -1.25,1.25 v 48.56 c 0,0.69 0.56,1.25 1.25,1.25 h 15 v -9.9 h -5.09 c -0.69,0 -1.25,-0.56 -1.25,-1.25 V 27.35 c 0,-0.69 0.56,-1.25 1.25,-1.25 h 5.09 v -9.93"
   class="st0" />
	<path
   id="path50"
   d="m 247.89,16.17 h -15 v 9.92 h 5.09 c 0.69,0 1.25,0.56 1.25,1.25 v 28.74 c 0,0.69 -0.56,1.25 -1.25,1.25 h -5.09 v 9.9 h 15 c 0.69,0 1.25,-0.56 1.25,-1.25 V 17.42 c 0.01,-0.68 -0.56,-1.25 -1.25,-1.25"
   class="st0" />
	<path
   id="path52"
   d="m 265.82,16.17 h -15 v 9.92 h 5.09 c 0.69,0 1.25,0.56 1.25,1.25 v 28.74 c 0,0.69 -0.56,1.25 -1.25,1.25 h -5.09 v 9.9 h 15 c 0.69,0 1.25,-0.56 1.25,-1.25 V 17.43 c 0,-0.69 -0.56,-1.26 -1.25,-1.26"
   class="st0" />
</g>
</svg>
